<svg height="100" viewBox="0 0 50.6 100" width="50.6" xmlns="http://www.w3.org/2000/svg"><path d="m46.1 74.1-7.3-12.2a58.1 58.1 0 0 0 2.4-15.1 14.8 14.8 0 0 0 -.1-2.1c-.7-13.5-6-18.4-9.9-22.3a19.9 19.9 0 0 1 -4.3-5.8 3.8 3.8 0 0 0 1.6-.5 2.5 2.5 0 0 0 1.1-2.1l-.2-.5c-.3-.3-1.2-.5-2.8-.6a7.8 7.8 0 0 1 .1-2.6c0-.4 0-.4.7-.5h.1a1 1 0 0 0 .8-.5 1.5 1.5 0 0 0 -.3-1.6v-.4a16.7 16.7 0 0 1 -1.6-5.4c-.1-1.3-.4-1.7-.7-1.8h-.6c-.2.1-.6.3-.6 1.8s-.3 2.1-1.6 5.5h-.1v.2a1.5 1.5 0 0 0 -.4 1 .9.9 0 0 0 .1.5 1 1 0 0 0 .8.5h.1c.7.1.7.1.7.5a9.2 9.2 0 0 1 .1 1.6v1c-1.6.1-2.5.3-2.8.6l-.2.5a2.3 2.3 0 0 0 1.1 2.2 3.4 3.4 0 0 0 1.6.5v.2a18.6 18.6 0 0 1 -4.5 5.7c-3.9 4-9.2 8.8-9.9 22.3a14.8 14.8 0 0 0 -.1 2.1 54.2 54.2 0 0 0 2.5 15.1l-7.4 12.2-4.5 25.9h5l4.8-16.5 7.9-6.6h.3l.8.3c.2.8.3 1.7.4 2.2s.3 1.4 4 1.7v18.9h4.2v-18.8c3.9-.2 4.1-1.3 4.1-1.7a10.9 10.9 0 0 0 .4-2.2l.9-.3h.2l7.8 6.6 4.8 16.4h5z" fill="#b4fff4"/></svg>